<svg width="44" height="44" viewBox="0 0 44 44" fill="none" xmlns="http://www.w3.org/2000/svg">
<path fill-rule="evenodd" clip-rule="evenodd" d="M21.9286 0C9.81776 0 0 9.81792 0 21.9289C0 34.0399 9.81776 43.8579 21.9286 43.8579H26.3143C27.524 43.8544 28.5037 42.8744 28.5068 41.6646V38.3444H21.9279C18.8075 38.348 15.7509 37.4606 13.1174 35.7867C12.7868 35.5766 12.5933 35.206 12.61 34.8145C12.6267 34.4231 12.8509 34.0703 13.1982 33.889C13.5455 33.7077 13.9632 33.7255 14.2938 33.9357C16.5756 35.3861 19.2242 36.1547 21.9279 36.1512H28.5068V32.8917C28.503 31.6825 27.5235 30.7033 26.3143 30.6998H21.9286C17.0843 30.6998 13.1572 26.7726 13.1572 21.9282C13.1572 17.0838 17.0843 13.1567 21.9286 13.1567C26.7729 13.1567 30.7 17.0838 30.7 21.9282V41.6639C30.7031 42.874 31.6832 43.8541 32.8932 43.8572H41.6626C42.873 43.8537 43.8537 42.8737 43.8579 41.6632V21.9296C43.8579 9.81823 34.0398 0 21.9286 0ZM31.0527 9.50614C30.7366 10.0034 30.0774 10.1503 29.5801 9.83439C23.9325 6.25549 16.5582 7.07209 11.8304 11.7999C7.10264 16.5278 6.28605 23.9022 9.8649 29.5499C10.0787 29.8715 10.102 30.2836 9.92564 30.6272C9.74931 30.9708 9.40097 31.1922 9.01502 31.2059C8.62906 31.2197 8.26583 31.0237 8.06545 30.6935C3.95025 24.2029 4.88789 15.726 10.3222 10.2917C15.7564 4.85731 24.2331 3.91965 30.7237 8.03492C31.2201 8.35092 31.3669 9.00911 31.052 9.50614H31.0527ZM37.2786 38.3455C37.8842 38.3455 38.3752 37.8545 38.3752 37.2489V21.8969C38.3788 18.7764 37.4914 15.7198 35.8175 13.0863C35.6074 12.7556 35.2368 12.5622 34.8454 12.5789C34.4539 12.5955 34.1011 12.8197 33.9198 13.1671C33.7386 13.5144 33.7563 13.932 33.9665 14.2627C35.4169 16.5445 36.1855 19.1931 36.182 21.8969V37.2489C36.182 37.8545 36.673 38.3455 37.2786 38.3455Z" fill="white"/>
</svg>
